<?xml version="1.0" encoding="UTF-8" standalone="no"?>
<!-- Created with Inkscape (http://www.inkscape.org/) -->

<svg
   xmlns:dc="http://purl.org/dc/elements/1.1/"
   xmlns:cc="http://creativecommons.org/ns#"
   xmlns:rdf="http://www.w3.org/1999/02/22-rdf-syntax-ns#"
   xmlns:svg="http://www.w3.org/2000/svg"
   xmlns="http://www.w3.org/2000/svg"
   xmlns:sodipodi="http://sodipodi.sourceforge.net/DTD/sodipodi-0.dtd"
   xmlns:inkscape="http://www.inkscape.org/namespaces/inkscape"
   width="136mm"
   height="44.200001mm"
   viewBox="0 0 136 44.200001"
   version="1.1"
   id="svg6110"
   inkscape:version="0.92.0 r"
   sodipodi:docname="azzlo-logo-typo.svg">
  <defs
     id="defs6104">
    <linearGradient
       gradientTransform="matrix(0.26458333,0,0,0.26458333,-13.92745,63.719606)"
       id="SVGID_47_"
       gradientUnits="userSpaceOnUse"
       x1="634.78583"
       y1="184.09489"
       x2="634.78583"
       y2="308.10181">
      <stop
         offset="0"
         style="stop-color:#445F85"
         id="stop1949" />
      <stop
         offset="0.1552"
         style="stop-color:#40587C"
         id="stop1951" />
      <stop
         offset="0.4084"
         style="stop-color:#374866"
         id="stop1953" />
      <stop
         offset="0.726"
         style="stop-color:#283246"
         id="stop1955" />
      <stop
         offset="1"
         style="stop-color:#1A212D"
         id="stop1957" />
    </linearGradient>
    <linearGradient
       gradientTransform="matrix(0.26458333,0,0,0.26458333,-13.92745,63.719606)"
       id="SVGID_46_"
       gradientUnits="userSpaceOnUse"
       x1="556.02612"
       y1="142.09129"
       x2="556.02612"
       y2="305.67819">
      <stop
         offset="0"
         style="stop-color:#445F85"
         id="stop1924" />
      <stop
         offset="0.1552"
         style="stop-color:#40587C"
         id="stop1926" />
      <stop
         offset="0.4084"
         style="stop-color:#374866"
         id="stop1928" />
      <stop
         offset="0.726"
         style="stop-color:#283246"
         id="stop1930" />
      <stop
         offset="1"
         style="stop-color:#1A212D"
         id="stop1932" />
    </linearGradient>
    <linearGradient
       gradientTransform="matrix(0.26458333,0,0,0.26458333,-13.92745,63.719606)"
       id="SVGID_45_"
       gradientUnits="userSpaceOnUse"
       x1="473.229"
       y1="186.51849"
       x2="473.229"
       y2="305.67819">
      <stop
         offset="0"
         style="stop-color:#445F85"
         id="stop1899" />
      <stop
         offset="0.1552"
         style="stop-color:#40587C"
         id="stop1901" />
      <stop
         offset="0.4084"
         style="stop-color:#374866"
         id="stop1903" />
      <stop
         offset="0.726"
         style="stop-color:#283246"
         id="stop1905" />
      <stop
         offset="1"
         style="stop-color:#1A212D"
         id="stop1907" />
    </linearGradient>
    <linearGradient
       gradientTransform="matrix(0.26458333,0,0,0.26458333,-13.92745,63.719606)"
       id="SVGID_44_"
       gradientUnits="userSpaceOnUse"
       x1="357.11292"
       y1="186.51849"
       x2="357.11292"
       y2="305.67819">
      <stop
         offset="0"
         style="stop-color:#445F85"
         id="stop1864" />
      <stop
         offset="0.1552"
         style="stop-color:#40587C"
         id="stop1866" />
      <stop
         offset="0.4084"
         style="stop-color:#374866"
         id="stop1868" />
      <stop
         offset="0.726"
         style="stop-color:#283246"
         id="stop1870" />
      <stop
         offset="1"
         style="stop-color:#1A212D"
         id="stop1872" />
    </linearGradient>
    <linearGradient
       gradientTransform="matrix(0.26458333,0,0,0.26458333,-13.92745,63.719606)"
       id="SVGID_43_"
       gradientUnits="userSpaceOnUse"
       x1="240.7946"
       y1="184.9035"
       x2="240.7946"
       y2="308.10181">
      <stop
         offset="0"
         style="stop-color:#445F85"
         id="stop1851" />
      <stop
         offset="0.1552"
         style="stop-color:#40587C"
         id="stop1853" />
      <stop
         offset="0.4084"
         style="stop-color:#374866"
         id="stop1855" />
      <stop
         offset="0.726"
         style="stop-color:#283246"
         id="stop1857" />
      <stop
         offset="1"
         style="stop-color:#1A212D"
         id="stop1859" />
    </linearGradient>
  </defs>
  <sodipodi:namedview
     id="base"
     pagecolor="#ffffff"
     bordercolor="#666666"
     borderopacity="1.0"
     inkscape:pageopacity="0.0"
     inkscape:pageshadow="2"
     inkscape:zoom="1.979899"
     inkscape:cx="335.14404"
     inkscape:cy="61.713906"
     inkscape:document-units="mm"
     inkscape:current-layer="layer1"
     showgrid="false"
     inkscape:snap-global="true"
     inkscape:object-nodes="false"
     inkscape:object-paths="false"
     inkscape:snap-bbox="true"
     inkscape:window-width="1920"
     inkscape:window-height="1025"
     inkscape:window-x="0"
     inkscape:window-y="27"
     inkscape:window-maximized="1"
     units="mm"
     width="209mm" />
  <metadata
     id="metadata6107">
    <rdf:RDF>
      <cc:Work
         rdf:about="">
        <dc:format>image/svg+xml</dc:format>
        <dc:type
           rdf:resource="http://purl.org/dc/dcmitype/StillImage" />
        <dc:title></dc:title>
      </cc:Work>
    </rdf:RDF>
  </metadata>
  <g
     inkscape:label="Layer 1"
     inkscape:groupmode="layer"
     id="layer1"
     style="display:inline"
     transform="translate(0,-252.80001)">
    <g
       id="g55"
       transform="translate(-34.477769,151.67545)">
      <path
         id="path1862"
         d="m 61.31476,115.39485 c -2.236,-1.82642 -5.31601,-2.75299 -9.15406,-2.75299 -1.84203,0 -3.52028,0.14869 -4.98739,0.44212 -1.43854,0.2876 -2.90328,0.70432 -4.35425,1.23904 -0.99907,0.36804 -1.56978,1.39277 -1.35626,2.43602 l 0.48049,2.35082 c 0.12409,0.60537 0.5035,1.12766 1.04113,1.43219 0.53129,0.30189 1.18666,0.35983 1.76371,0.15769 1.21894,-0.42809 2.40877,-0.76147 3.53616,-0.9906 1.08691,-0.22013 2.31934,-0.33178 3.66316,-0.33178 2.13677,0 3.79518,0.41486 4.7961,1.19962 0.55483,0.4355 1.29275,1.22819 1.29275,3.07287 0,0.072 -0.002,0.14869 -0.006,0.22966 l -0.0294,0.62706 -0.61383,-0.13124 c -0.69876,-0.14975 -1.44357,-0.29368 -2.21377,-0.42836 -1.94733,-0.33999 -3.98568,-0.51249 -6.05843,-0.51249 -1.98305,0 -3.85656,0.26511 -5.56868,0.78845 -1.76186,0.53923 -3.30835,1.32689 -4.59635,2.34104 -1.33482,1.0496 -2.38892,2.34844 -3.13425,3.8608 -0.74925,1.5195 -1.1292,3.21283 -1.1292,5.0337 0,1.63062 0.3347,3.0898 0.99537,4.33731 0.64135,1.2147 1.51394,2.25002 2.59424,3.07763 1.03928,0.7964 2.23176,1.39965 3.54488,1.79361 1.26392,0.37915 2.58551,0.57124 3.92774,0.57124 2.72204,0 5.16864,-0.58552 7.27181,-1.74017 l 0.42069,-0.23071 0.27331,0.39396 c 0.0191,0.0273 0.0384,0.0545 0.0593,0.0812 0.40773,0.53182 1.02209,0.83688 1.68805,0.84058 l 2.56434,0.014 c 0.97922,0 1.8288,-0.65272 2.0783,-1.58723 l 4.15925,-15.57126 c 0.20532,-0.70564 0.35957,-1.42849 0.46143,-2.15953 0.10319,-0.74771 0.15373,-1.40282 0.15373,-2.00263 -2.7e-4,-3.24908 -1.2327,-5.97456 -3.56447,-7.88167 z m -5.021,15.99088 c -0.31803,0.97843 -0.77576,1.87193 -1.36023,2.65642 -0.68209,0.91519 -1.50177,1.71635 -2.43654,2.38125 -0.94351,0.67151 -1.96665,1.19248 -3.04059,1.54914 -1.05887,0.35136 -2.12673,0.52969 -3.17315,0.52969 -1.50786,0 -2.67441,-0.3347 -3.4671,-0.99483 -0.4744,-0.39476 -1.01891,-1.02473 -1.01891,-2.39977 0,-0.72734 0.14181,-1.35705 0.43365,-1.92537 0.30639,-0.59929 0.73104,-1.11073 1.29725,-1.56184 0.59373,-0.47228 1.33324,-0.85011 2.19816,-1.12342 0.90884,-0.2876 1.94151,-0.43339 3.06837,-0.43339 1.9177,0 3.71158,0.11801 5.33189,0.35084 0.60642,0.0871 1.19168,0.18124 1.75498,0.28231 l 0.60087,0.10795 z"
         style="fill:#1a1a1a;stroke-width:0.26458332"
         inkscape:connector-curvature="0" />
      <path
         id="path1875"
         d="M 89.4016,137.96777 H 75.58876 l 21.35399,-19.69082 c 0.28893,-0.26643 0.49874,-0.60695 0.60669,-0.98478 l 0.42731,-1.49621 c 0.18335,-0.64188 0.0526,-1.34303 -0.34899,-1.8759 -0.4019,-0.53261 -1.04034,-0.85064 -1.70762,-0.85064 H 73.26572 c -0.96202,0 -1.81054,0.64823 -2.06375,1.57639 l -0.64109,2.35082 c -0.17409,0.63924 -0.0381,1.33509 0.36381,1.86108 0.40216,0.52652 1.03769,0.84085 1.69994,0.84085 h 12.90453 l -21.35399,19.69082 c -0.28893,0.26644 -0.49874,0.60695 -0.60669,0.98451 l -0.42757,1.49622 c -0.18362,0.64162 -0.0529,1.34276 0.34872,1.8759 0.4019,0.53287 1.04034,0.8509 1.70789,0.8509 h 23.56273 c 0.96202,0 1.81054,-0.64823 2.06375,-1.57612 l 0.64135,-2.35083 c 0.17436,-0.63923 0.0384,-1.33508 -0.36354,-1.86108 -0.40216,-0.52678 -1.03769,-0.84111 -1.70021,-0.84111 z"
         style="fill:#1a1a1a;stroke-width:0.26458332"
         inkscape:connector-curvature="0" />
      <path
         id="path1910"
         d="m 120.12396,137.96777 h -13.81258 l 21.354,-19.69082 c 0.28839,-0.26617 0.49847,-0.60695 0.60616,-0.98478 l 0.4273,-1.49621 c 0.18362,-0.64215 0.0529,-1.34329 -0.34819,-1.8759 -0.4019,-0.53261 -1.04087,-0.85064 -1.70815,-0.85064 h -22.65469 c -0.96229,0 -1.81054,0.64823 -2.06348,1.57639 l -0.64109,2.35109 c -0.17409,0.63923 -0.0381,1.33482 0.36381,1.86081 0.40216,0.52652 1.03796,0.84085 1.70021,0.84085 h 12.90426 l -21.354,19.69082 c -0.28892,0.26644 -0.49874,0.60695 -0.60669,0.98451 l -0.42756,1.49622 c -0.18362,0.64162 -0.0529,1.34276 0.34872,1.8759 0.4019,0.53287 1.04034,0.8509 1.70788,0.8509 h 23.56247 c 0.96229,0 1.81055,-0.64823 2.06375,-1.57612 l 0.64162,-2.35083 c 0.17409,-0.63923 0.0378,-1.33508 -0.3638,-1.86134 -0.40191,-0.52652 -1.03717,-0.84085 -1.69995,-0.84085 z"
         style="fill:#1a1a1a;stroke-width:0.26458332"
         inkscape:connector-curvature="0" />
      <path
         id="path1935"
         d="m 139.73275,101.31452 h -2.61858 c -0.96599,0 -1.8153,0.65166 -2.06586,1.58459 l -10.47194,39.00408 c -0.17092,0.63844 -0.0333,1.33244 0.36856,1.85631 0.4019,0.52467 1.03664,0.83741 1.6973,0.83741 h 2.61805 c 0.966,0 1.81531,-0.65167 2.06587,-1.58459 l 10.47247,-39.00408 c 0.17145,-0.63791 0.0339,-1.33191 -0.36856,-1.85658 -0.40164,-0.52414 -1.03638,-0.83714 -1.69731,-0.83714 z"
         style="fill:#1a1a1a;stroke-width:0.26458332"
         inkscape:connector-curvature="0" />
      <path
         id="path1960"
         d="m 169.29121,121.01618 c -0.69347,-1.7436 -1.68963,-3.27183 -2.95963,-4.5421 -1.26418,-1.26365 -2.7858,-2.26589 -4.52279,-2.97841 -1.73064,-0.70829 -3.66606,-1.0676 -5.75283,-1.0676 -2.47597,0 -4.86384,0.52494 -7.09719,1.56052 -2.18704,1.01388 -4.13385,2.38654 -5.78696,4.08014 -1.65312,1.6928 -2.98397,3.67797 -3.95605,5.89968 -0.98716,2.25663 -1.48775,4.63073 -1.48775,7.05537 0,2.00951 0.34713,3.90234 1.03293,5.62558 0.69294,1.74333 1.68857,3.27183 2.9591,4.54263 1.26682,1.26603 2.78844,2.268 4.52226,2.97815 1.73064,0.70855 3.66606,1.06785 5.75336,1.06785 2.39766,0 4.74477,-0.51382 6.97706,-1.5277 2.18387,-0.99324 4.13862,-2.34368 5.80946,-4.01452 1.67402,-1.67376 3.02657,-3.65099 4.02114,-5.87719 1.00965,-2.26192 1.52109,-4.67651 1.52109,-7.17629 -2.7e-4,-2.00872 -0.3474,-3.90155 -1.0332,-5.62611 z m -7.01278,10.20366 c -0.64453,1.44172 -1.49569,2.72045 -2.53074,3.80074 -1.02315,1.06865 -2.22144,1.93119 -3.56209,2.56381 -1.30889,0.61754 -2.59212,0.91784 -3.92271,0.91784 -2.29711,0 -4.07617,-0.63553 -5.43877,-1.94257 -1.33615,-1.2819 -1.98597,-3.12764 -1.98597,-5.64277 0,-1.54225 0.29369,-2.98079 0.89773,-4.3987 0.60987,-1.43271 1.44145,-2.7125 2.47254,-3.80365 1.0242,-1.08532 2.22488,-1.96479 3.5687,-2.61408 1.30333,-0.62971 2.6154,-0.93609 4.01161,-0.93609 2.29632,0 4.07511,0.63526 5.43824,1.94204 1.33694,1.28323 1.98702,3.12922 1.98702,5.6433 2.7e-4,1.59834 -0.30612,3.0607 -0.93556,4.47013 z"
         style="fill:#1a1a1a;stroke-width:0.26458332"
         inkscape:connector-curvature="0" />
    </g>
  </g>
</svg>
